<?xml version="1.0" encoding="UTF-8"?>
<svg version="1.1" xmlns="http://www.w3.org/2000/svg" width="1024" height="1024">
<path d="M0 0 C337.92 0 675.84 0 1024 0 C1024 337.92 1024 675.84 1024 1024 C686.08 1024 348.16 1024 0 1024 C0 686.08 0 348.16 0 0 Z " fill="#1F191F" transform="translate(0,0)"/>
<path d="M0 0 C2.59740693 0.01069892 5.1941181 0.0000538 7.79150391 -0.01269531 C57.5634595 -0.05848504 105.75236628 19.01671686 142.73291016 52.26074219 C144.02453745 53.34412247 145.31619993 54.42746079 146.60791016 55.51074219 C150.77668278 59.20928449 154.79436699 63.07006643 158.79541016 66.94824219 C159.48812012 67.60276367 160.18083008 68.25728516 160.89453125 68.93164062 C161.53342285 69.55973633 162.17231445 70.18783203 162.83056641 70.83496094 C163.41330322 71.39787842 163.99604004 71.9607959 164.59643555 72.54077148 C165.73291016 74.26074219 165.73291016 74.26074219 165.62158203 76.24707031 C164.55679122 78.65981608 163.2954603 80.05490932 161.41650391 81.90527344 C160.73394531 82.58267578 160.05138672 83.26007813 159.34814453 83.95800781 C158.62949219 84.65603516 157.91083984 85.3540625 157.17041016 86.07324219 C156.13303711 87.10288086 156.13303711 87.10288086 155.07470703 88.15332031 C151.81012793 91.36921976 148.50487146 94.49015067 145.01806641 97.46386719 C138.94450873 102.71087696 133.38327776 108.50525155 127.73291016 114.19824219 C126.56517641 115.37100228 125.39720942 116.54353016 124.22900391 117.71582031 C121.39427781 120.56145908 118.56272191 123.41021672 115.73291016 126.26074219 C112.23609124 125.09513588 111.6728595 124.17145673 109.54541016 121.26074219 C95.69491271 102.98618189 77.74125349 90.12186651 56.73291016 81.26074219 C55.63076172 80.78765625 54.52861328 80.31457031 53.39306641 79.82714844 C45.65757135 76.66731591 37.95549927 74.6970023 29.73291016 73.26074219 C28.57275391 73.05449219 27.41259766 72.84824219 26.21728516 72.63574219 C-0.5750518 68.46031305 -26.95705558 72.42391922 -51.26708984 84.26074219 C-52.24291016 84.73382813 -53.21873047 85.20691406 -54.22412109 85.69433594 C-69.12027214 93.39322513 -82.71006023 104.25015985 -93.26708984 117.26074219 C-94.02634766 118.17082031 -94.78560547 119.08089844 -95.56787109 120.01855469 C-111.22203076 139.21140594 -120.76908443 162.04266783 -125.26708984 186.26074219 C-125.44288574 186.98970703 -125.61868164 187.71867188 -125.79980469 188.46972656 C-126.4232388 192.19339362 -126.42960265 195.87551326 -126.43505859 199.63964844 C-126.43838699 200.44756332 -126.44171539 201.25547821 -126.44514465 202.08787537 C-126.45019635 203.79661493 -126.45255352 205.50536431 -126.45239258 207.21411133 C-126.45456216 209.7903742 -126.47268951 212.36619655 -126.49169922 214.94238281 C-126.5223819 223.91524725 -126.20511681 232.45483216 -124.26708984 241.26074219 C-124.0655127 242.22262451 -123.86393555 243.18450684 -123.65625 244.17553711 C-118.88963519 266.06120077 -108.68865958 286.21104566 -94.26708984 303.26074219 C-93.84347168 303.76798828 -93.41985352 304.27523438 -92.98339844 304.79785156 C-70.73322463 331.20685816 -38.33238203 346.20517383 -4.26708984 349.26074219 C28.71103202 351.47177536 62.61503007 341.75006467 88.73291016 321.26074219 C89.26287598 320.84743652 89.7928418 320.43413086 90.33886719 320.00830078 C98.99523919 313.18836207 106.45125448 305.51328528 113.73291016 297.26074219 C118.45423124 298.68490668 121.24295626 301.45390911 124.54541016 304.94824219 C125.60725175 306.04259577 126.67105243 307.13505191 127.73681641 308.22558594 C128.25002441 308.7513623 128.76323242 309.27713867 129.29199219 309.81884766 C131.69943606 312.22792314 134.28207433 314.41416293 136.87353516 316.62011719 C139.6278668 319.05040981 142.16452919 321.68351482 144.74072266 324.29980469 C146.6361809 326.16553025 148.58737751 327.90733474 150.60791016 329.63574219 C154.84905642 333.27101042 158.73192758 337.22567955 162.63134766 341.22167969 C164.56387062 343.3020031 164.56387062 343.3020031 166.73291016 344.26074219 C164.39136072 349.63018326 160.08098155 353.25206154 155.98291016 357.32324219 C155.12544189 358.176521 154.26797363 359.0297998 153.38452148 359.90893555 C147.05356396 366.12883401 140.56315118 371.8446664 133.38476562 377.05761719 C131.70428692 378.28158985 130.04848602 379.53439406 128.39306641 380.79199219 C105.44068969 397.98726073 77.72594123 410.29501425 49.73291016 416.26074219 C48.9061377 416.44556152 48.07936523 416.63038086 47.22753906 416.82080078 C-0.31258806 427.11694788 -50.57651991 418.99549471 -93.26708984 396.26074219 C-94.15992676 395.7932959 -94.15992676 395.7932959 -95.07080078 395.31640625 C-118.91655459 382.74851035 -140.85413191 363.53371305 -157.26708984 342.26074219 C-157.69489746 341.7093457 -158.12270508 341.15794922 -158.56347656 340.58984375 C-193.07281565 295.82836035 -208.17693135 239.67002127 -201.18896484 183.59399414 C-194.7514494 139.29389417 -175.21314392 97.71852879 -144.26708984 65.26074219 C-143.67541016 64.63651367 -143.08373047 64.01228516 -142.47412109 63.36914062 C-128.29368456 48.49918385 -113.02669449 36.56254761 -95.26708984 26.26074219 C-94.55246582 25.8458252 -93.8378418 25.4309082 -93.1015625 25.00341797 C-73.87054978 14.00762459 -53.070529 6.25957379 -31.26708984 2.26074219 C-30.26693848 2.07527832 -29.26678711 1.88981445 -28.23632812 1.69873047 C-18.80511976 0.14407516 -9.53947983 -0.04659524 0 0 Z " fill="#FBFAFB" transform="translate(678.26708984375,301.7392578125)"/>
<path d="M0 0 C24.09 0 48.18 0 73 0 C73.06626075 37.97114657 73.12160519 75.94223817 73.15319599 113.91342611 C73.15694766 118.40647688 73.16083067 122.89952753 73.16479492 127.39257812 C73.16558185 128.28698234 73.16636878 129.18138656 73.16717956 130.10289393 C73.18019785 144.54397059 73.20383177 158.98501104 73.23145839 173.42606629 C73.25961252 188.26775314 73.2761973 203.10942116 73.28226548 217.95113361 C73.28636128 227.09332218 73.29924968 236.2354084 73.3237494 245.37756543 C73.33973047 251.66508035 73.34437272 257.95254314 73.34050413 264.24007685 C73.33860159 267.85594806 73.34130719 271.47164173 73.35761642 275.08748055 C73.53582434 316.70604634 67.10530314 356.61575561 37.43359375 387.6875 C26.93647501 397.64852207 14.23987594 404.44216197 1 410 C-0.38832031 410.58394531 -0.38832031 410.58394531 -1.8046875 411.1796875 C-18.04901358 417.2536529 -35.21077246 418.38498551 -52.375 418.4375 C-53.12378418 418.44358276 -53.87256836 418.44966553 -54.64404297 418.45593262 C-69.39806761 418.53437706 -83.62405122 416.67486029 -97.625 411.8125 C-98.94673218 411.35967651 -98.94673218 411.35967651 -100.29516602 410.89770508 C-131.69307033 399.76185412 -153.30627049 377.31543094 -168 348 C-168.63421875 346.95199219 -168.63421875 346.95199219 -169.28125 345.8828125 C-170.3582751 343.06147501 -170.19236956 341.78651581 -169 339 C-166.58489214 337.30754747 -164.36224384 336.00831989 -161.75 334.6875 C-160.11794493 333.8226416 -158.48647757 332.95667361 -156.85546875 332.08984375 C-155.93813965 331.6088623 -155.02081055 331.12788086 -154.07568359 330.63232422 C-148.66885732 327.76281791 -143.32587898 324.77735036 -137.97302246 321.80874634 C-136.10571716 320.77394947 -134.23727785 319.74124308 -132.36816406 318.7097168 C-131.47425461 318.21637093 -131.47425461 318.21637093 -130.56228638 317.71305847 C-128.81672373 316.75175953 -127.06878226 315.79478422 -125.32080078 314.83789062 C-123.13948946 313.63064819 -120.97054373 312.40073363 -118.81591797 311.14648438 C-117.84412598 310.58767578 -116.87233398 310.02886719 -115.87109375 309.453125 C-115.02345459 308.95458008 -114.17581543 308.45603516 -113.30249023 307.94238281 C-111 307 -111 307 -108.78222656 307.21435547 C-106.07338959 308.40847018 -105.5563571 310.23787353 -104.3125 312.875 C-96.41702919 328.11325866 -84.10660993 339.07416643 -68 345 C-52.71510695 349.8160891 -37.35509257 347.27985032 -23.1875 340.3125 C-12.22092334 333.91133953 -7.24245125 324.47252502 -4.06640625 312.47265625 C-1.58458473 301.53601694 -0.85166734 290.90073839 -0.84178162 279.71200562 C-0.83684364 278.51106408 -0.83190566 277.31012254 -0.82681805 276.07278883 C-0.8141854 272.7661138 -0.80585184 269.45948013 -0.79939139 266.15279078 C-0.79133711 262.57691569 -0.7776569 259.00106142 -0.76467896 255.42520142 C-0.74298704 249.23863762 -0.72481617 243.05207165 -0.70907402 236.86548996 C-0.68630869 227.92086141 -0.65817533 218.976256 -0.62875474 210.03164716 C-0.58116022 195.51769038 -0.53787414 181.00372411 -0.49731445 166.48974609 C-0.457918 152.39533754 -0.41648191 138.30093741 -0.37231445 124.20654297 C-0.36822804 122.90217976 -0.36822804 122.90217976 -0.36405908 121.57146578 C-0.35037892 117.20882321 -0.33665878 112.84618077 -0.32291877 108.48353839 C-0.20908196 72.32237548 -0.10304128 36.1611956 0 0 Z " fill="#FCFBFC" transform="translate(351,303)"/>
</svg>
